<?xml version="1.0" encoding="UTF-8" standalone="no"?>
<!DOCTYPE svg PUBLIC "-//W3C//DTD SVG 1.1//EN" "http://www.w3.org/Graphics/SVG/1.1/DTD/svg11.dtd">
<svg width="100%" height="100%" viewBox="0 0 250 100" version="1.1" xmlns="http://www.w3.org/2000/svg" xmlns:xlink="http://www.w3.org/1999/xlink" xml:space="preserve" xmlns:serif="http://www.serif.com/" style="fill-rule:evenodd;clip-rule:evenodd;">
    <g transform="matrix(1,0,0,1,0,-50)">
        <path d="M63,134L154,134C154.515,134 155.017,133.944 155.5,133.839C155.983,133.944 156.485,134 157,134L209,134C212.866,134 216,130.866 216,127C216,123.134 212.866,120 209,120L203,120C199.134,120 196,116.866 196,113C196,109.134 199.134,106 203,106L222,106C225.866,106 229,102.866 229,99C229,95.134 225.866,92 222,92L200,92C203.866,92 207,88.866 207,85C207,81.134 203.866,78 200,78L136,78C139.866,78 143,74.866 143,71C143,67.134 139.866,64 136,64L79,64C75.134,64 72,67.134 72,71C72,74.866 75.134,78 79,78L39,78C35.134,78 32,81.134 32,85C32,88.866 35.134,92 39,92L64,92C67.866,92 71,95.134 71,99C71,102.866 67.866,106 64,106L24,106C20.134,106 17,109.134 17,113C17,116.866 20.134,120 24,120L63,120C59.134,120 56,123.134 56,127C56,130.866 59.134,134 63,134ZM226,134C229.866,134 233,130.866 233,127C233,123.134 229.866,120 226,120C222.134,120 219,123.134 219,127C219,130.866 222.134,134 226,134Z" style="fill:rgb(243,247,255);"/>
    </g>
    <g transform="matrix(1,0,0,1,0,-50)">
        <path d="M136.098,112.955C136.098,118.502 131.129,124 125,124C118.871,124 113.902,118.502 113.902,112.955C113.902,112.775 113.908,111.596 113.918,111.419L93,111.419L101.161,91.576C101.513,90.634 102.489,90 103.587,90L146.413,90C147.511,90 148.487,90.634 148.839,91.576L157,111.419L136.082,111.419C136.092,111.596 136.098,112.775 136.098,112.955Z" style="fill:rgb(232,240,254);"/>
    </g>
    <g transform="matrix(1,0,0,1,0,-50)">
        <path d="M85.25,111.512L85.25,138C85.25,138.966 86.034,139.75 87,139.75L163,139.75C163.966,139.75 164.75,138.966 164.75,138L164.75,111.512L155.255,83.439C155.015,82.729 154.348,82.25 153.598,82.25L96.402,82.25C95.652,82.25 94.985,82.729 94.745,83.439L85.25,111.512Z" style="fill:none;stroke:rgb(31,100,231);stroke-width:2.5px;"/>
    </g>
    <g transform="matrix(1,0,0,1,0,-50)">
        <path d="M98,111L110.745,111C112.621,111 112.621,112.319 112.621,113C112.621,119.627 118.117,125 124.897,125C131.677,125 137.173,119.627 137.173,113C137.173,112.319 137.173,111 139.05,111L164,111M90.574,111L93,111L90.574,111Z" style="fill:none;fill-rule:nonzero;stroke:rgb(31,100,231);stroke-width:2.5px;stroke-linecap:round;stroke-linejoin:round;"/>
    </g>
    <g transform="matrix(1,0,0,1,0,-50)">
        <path d="M150.1,58.303L139,70.756M124.1,54L124.1,70.756L124.1,54ZM98,58.303L109.1,70.756L98,58.303Z" style="fill:none;fill-rule:nonzero;stroke:rgb(117,164,254);stroke-width:2.5px;stroke-linecap:round;stroke-linejoin:round;"/>
    </g>
</svg>
