<svg width="503" height="437" viewBox="0 0 503 437" fill="none" xmlns="http://www.w3.org/2000/svg">
<g clip-path="url(#clip0_119_2)">
<path d="M450.344 325.139C442.744 334.739 420.444 334.139 402.344 336.039C390.444 337.339 380.344 339.739 377.444 346.939C376.698 348.651 376.338 350.506 376.39 352.372C376.442 354.239 376.904 356.071 377.744 357.739C383.444 370.639 406.844 382.039 420.544 399.539C437.944 421.639 404.944 444.639 365.344 434.439C325.744 424.239 298.344 426.539 254.244 431.539C210.144 436.439 163.244 438.439 130.244 416.639C102.344 398.239 114.744 384.639 137.144 378.039C141.383 376.795 145.69 375.793 150.044 375.039C157.18 373.928 164.255 372.459 171.244 370.639C187.144 366.539 195.444 361.939 193.444 357.439C190.644 351.239 163.544 347.739 157.644 335.339C151.744 322.939 162.544 314.939 184.344 308.639C189.832 307.161 195.466 306.29 201.144 306.039C221.444 304.739 247.044 306.939 274.244 297.439C309.644 285.039 338.144 281.339 384.644 287.839C417.144 292.339 437.444 298.339 447.144 305.439C455.244 311.339 456.044 317.939 450.344 325.139Z" fill="#809DF9"/>
<path d="M171.248 370.639C187.148 366.539 195.448 361.939 193.448 357.439C190.648 351.239 163.548 347.739 157.648 335.339C151.748 322.939 162.548 314.939 184.348 308.639C189.836 307.161 195.47 306.29 201.148 306.039C191.348 309.539 171.748 315.439 166.548 323.539C156.848 338.639 184.048 341.639 198.448 348.539C210.548 354.339 211.548 368.839 171.248 370.639Z" fill="#E1ECFF"/>
<path d="M450.344 325.139C442.744 334.739 420.444 334.139 402.344 336.039C390.444 337.339 380.344 339.739 377.444 346.939C376.698 348.651 376.338 350.506 376.39 352.373C376.442 354.239 376.904 356.071 377.744 357.739C365.244 350.539 369.444 338.739 382.644 333.839C397.544 328.239 424.744 332.139 440.444 324.239C449.344 319.739 449.044 311.539 447.244 305.439C455.244 311.339 456.044 317.939 450.344 325.139Z" fill="#E1ECFF"/>
<path d="M365.344 434.439C325.744 424.239 298.344 426.539 254.244 431.539C210.144 436.439 163.244 438.439 130.244 416.639C102.344 398.239 114.744 384.639 137.144 378.039C125.644 383.839 121.044 392.939 130.744 402.839C149.044 421.539 184.844 428.939 229.544 423.739C274.344 418.439 294.344 414.839 330.244 418.239C369.044 421.939 396.144 430.439 409.644 416.739C423.144 403.039 388.844 384.839 377.344 369.239C365.844 353.539 366.944 339.039 386.344 336.739C391.622 336.145 396.936 335.945 402.244 336.139C390.344 337.439 380.244 339.839 377.344 347.039C370.044 365.139 403.044 377.539 420.444 399.639C437.844 421.639 404.844 444.739 365.344 434.439Z" fill="#E1ECFF"/>
<path d="M187.844 381.739C187.844 381.739 185.444 388.739 197.044 392.239C208.644 395.739 226.544 392.239 226.544 392.239C226.544 392.239 209.244 402.039 192.444 397.239C175.644 392.439 187.844 381.739 187.844 381.739Z" fill="#E1ECFF"/>
<path d="M292.244 393.039C292.244 393.039 306.844 384.939 323.944 388.439C340.944 391.939 361.744 393.039 367.444 389.639C373.144 386.239 371.644 381.339 371.644 381.339C371.644 381.339 379.144 392.339 365.844 396.439C352.544 400.639 326.344 393.439 317.444 392.039C309.05 390.898 300.521 391.237 292.244 393.039V393.039Z" fill="#E1ECFF"/>
<path d="M373.344 295.739C373.344 295.739 398.844 298.639 408.044 305.439C417.244 312.239 411.644 318.539 411.644 318.539C411.644 318.539 423.544 315.139 416.644 306.939C407.444 295.939 373.344 295.739 373.344 295.739Z" fill="#E1ECFF"/>
<path d="M218.445 315.339C218.445 315.339 208.045 318.539 212.845 322.939C217.645 327.339 226.845 330.939 226.845 330.939C226.845 330.939 208.145 328.339 205.245 322.539C202.345 316.639 218.445 315.339 218.445 315.339Z" fill="#E1ECFF"/>
<path d="M382.944 322.14C379.244 326.54 368.244 326.24 359.244 327.14C353.344 327.74 348.344 328.84 346.944 332.14C346.589 332.929 346.413 333.786 346.431 334.651C346.448 335.516 346.657 336.366 347.044 337.14C349.844 343.04 361.444 348.34 368.144 356.34C376.744 366.54 360.444 377.04 340.944 372.34C321.444 367.64 307.844 368.74 286.144 371.04C264.344 373.34 241.244 374.24 224.944 364.14C211.144 355.64 217.344 349.44 228.344 346.34C230.447 345.747 232.585 345.279 234.744 344.94C238.744 344.34 242.244 343.64 245.244 342.94C253.144 341.04 257.144 338.94 256.144 336.84C254.744 334.04 241.444 332.34 238.544 326.74C235.644 321.04 240.944 317.34 251.744 314.44C254.463 313.76 257.244 313.358 260.044 313.24C270.044 312.64 282.744 313.64 296.144 309.34C313.644 303.64 327.644 301.94 350.644 304.94C366.644 307.04 376.644 309.74 381.444 313.04C385.344 315.84 385.744 318.84 382.944 322.14Z" fill="#E1ECFF"/>
<path d="M370.344 322.139C367.244 326.039 358.144 325.839 350.744 326.639C345.844 327.139 341.744 328.139 340.544 331.139C340.261 331.841 340.125 332.593 340.142 333.349C340.159 334.106 340.33 334.851 340.644 335.539C342.944 340.839 352.544 345.539 358.144 352.639C365.244 361.639 351.744 371.039 335.544 366.939C319.344 362.739 308.144 363.739 290.144 365.739C272.144 367.739 252.944 368.539 239.444 359.639C228.044 352.139 233.144 346.539 242.244 343.839C243.979 343.312 245.75 342.911 247.544 342.639C250.844 342.139 253.744 341.439 256.244 340.839C262.744 339.139 266.144 337.239 265.344 335.439C264.244 332.939 253.144 331.439 250.744 326.439C248.344 321.339 252.744 318.139 261.644 315.539C263.902 314.947 266.213 314.578 268.544 314.439C276.844 313.939 287.344 314.839 298.444 310.939C312.944 305.839 324.644 304.339 343.644 307.039C356.944 308.839 365.244 311.339 369.244 314.239C372.344 316.439 372.644 319.239 370.344 322.139Z" fill="#809DF9"/>
<path d="M144.944 348.039C134.544 348.539 127.144 350.839 125.344 356.739C123.644 362.639 136.944 364.039 151.244 363.539C165.644 362.939 167.944 356.339 165.844 353.239C163.044 348.639 153.944 347.539 144.944 348.039Z" fill="#E1ECFF"/>
<path d="M424.444 344.439C412.544 344.839 403.944 346.939 401.944 352.139C399.944 357.339 415.244 358.639 431.744 358.139C448.244 357.639 447.044 351.839 445.144 348.839C443.344 345.839 434.744 344.039 424.444 344.439Z" fill="#E1ECFF"/>
<path d="M467.944 364.139C450.344 364.939 430.744 369.039 434.844 377.639C438.944 386.339 454.444 389.039 478.744 388.139C503.144 387.239 504.744 378.539 502.044 373.339C499.344 368.139 483.144 363.439 467.944 364.139Z" fill="#E1ECFF"/>
<path d="M244.644 59.4391V65.9391C244.644 66.5391 244.544 67.1391 244.544 67.6391C244.122 70.4964 242.689 73.1074 240.505 74.9976C238.322 76.8878 235.532 77.9315 232.644 77.9391H50.4438C47.5513 77.9473 44.7533 76.9092 42.5662 75.0161C40.3791 73.1231 38.9505 70.503 38.5438 67.6391C38.4607 67.0765 38.4272 66.5076 38.4438 65.9391V59.4391C38.4324 56.2438 39.6898 53.1747 41.9398 50.9059C44.1899 48.6371 47.2485 47.3542 50.4438 47.3391H232.544C234.134 47.3362 235.708 47.6472 237.178 48.2543C238.647 48.8613 239.982 49.7525 241.106 50.8767C242.23 52.0008 243.122 53.3359 243.729 54.8052C244.336 56.2746 244.647 57.8493 244.644 59.4391V59.4391Z" fill="#E1ECFF"/>
<path d="M289.344 181.239C289.38 205.399 283.366 229.183 271.849 250.421C260.332 271.658 243.68 289.674 223.412 302.823C203.145 315.973 179.907 323.837 155.819 325.698C131.731 327.56 107.561 323.359 85.5136 313.48C63.4662 303.601 44.244 288.358 29.601 269.141C14.958 249.925 5.3606 227.348 1.68455 203.469C-1.9915 179.591 0.370877 155.172 8.55611 132.442C16.7413 109.711 30.4888 89.3921 48.5439 73.3391L240.944 73.3391C269.218 98.4266 286.494 133.626 289.044 171.339C289.244 174.639 289.344 177.939 289.344 181.239Z" fill="#E1ECFF"/>
<path d="M244.444 67.6392C244.022 70.4964 242.589 73.1075 240.405 74.9976C238.222 76.8878 235.432 77.9316 232.544 77.9392H50.4439C47.5514 77.9474 44.7535 76.9092 42.5664 75.0162C40.3793 73.1231 38.9506 70.503 38.5439 67.6392H244.444Z" fill="#C5DFFF"/>
<path d="M289.344 181.239C289.337 213.766 278.37 245.342 258.212 270.871C238.055 296.399 209.883 314.39 178.244 321.939C167.305 324.563 156.093 325.872 144.844 325.839C120.554 325.824 96.6592 319.695 75.3617 308.016C54.0643 296.337 36.0497 279.484 22.979 259.011C9.90821 238.538 2.20187 215.104 0.570423 190.869C-1.06103 166.635 3.43492 142.379 13.6438 120.339L34.1438 124.139L289.044 171.339V171.839C289.244 174.939 289.344 178.139 289.344 181.239Z" fill="#E1ECFF"/>
<path d="M289.044 171.839C272.744 176.239 232.944 172.439 150.744 158.039C15.9438 134.339 13.6438 120.339 13.6438 120.339L34.1438 124.139L289.044 171.339V171.839Z" fill="#B2C2F9"/>
<path d="M178.244 321.939C167.305 324.563 156.093 325.872 144.844 325.839C120.554 325.824 96.6592 319.695 75.3617 308.016C54.0643 296.337 36.0497 279.484 22.979 259.011C9.90821 238.538 2.20187 215.104 0.570423 190.869C-1.06103 166.635 3.43492 142.379 13.6438 120.339L34.1438 124.139C28.5438 149.139 22.1438 201.339 48.9438 251.239C77.1438 303.739 133.844 316.339 178.244 321.939Z" fill="#B2C2F9"/>
<path d="M56.9439 85.7421C56.2845 85.5965 55.5989 85.621 54.9516 85.8134C54.3043 86.0059 53.7166 86.3599 53.2439 86.8421C50.5439 89.5421 44.8439 95.3421 41.2439 101.042C38.2439 105.842 36.2439 112.242 35.0439 116.442C34.8924 117.004 34.866 117.592 34.9666 118.166C35.0672 118.739 35.2923 119.283 35.626 119.76C35.9597 120.236 36.394 120.634 36.8982 120.925C37.4023 121.216 37.9641 121.392 38.5439 121.442L39.3439 121.542C40.2611 121.65 41.1875 121.441 41.9695 120.95C42.7516 120.459 43.3424 119.715 43.6439 118.842C45.2849 113.918 47.3946 109.163 49.9439 104.642C52.5528 100.219 55.6378 96.0944 59.1439 92.3421C59.607 91.8129 59.9237 91.1717 60.0624 90.4823C60.2012 89.7928 60.1571 89.079 59.9347 88.4119C59.7123 87.7447 59.3193 87.1473 58.7946 86.6789C58.27 86.2106 57.632 85.8877 56.9439 85.7421V85.7421Z" fill="#C5DFFF"/>
<path d="M271.744 161.339C272.569 160.555 273.185 159.577 273.534 158.494C273.883 157.411 273.956 156.257 273.744 155.139C272.544 148.739 269.744 135.439 265.244 125.039C261.444 116.339 254.444 107.439 249.544 101.839C248.898 101.105 248.102 100.518 247.209 100.12C246.317 99.7213 245.349 99.5199 244.371 99.5294C243.393 99.5389 242.429 99.759 241.545 100.175C240.66 100.591 239.875 101.192 239.244 101.939L238.444 102.939C237.431 104.109 236.849 105.59 236.795 107.136C236.74 108.682 237.216 110.201 238.144 111.439C243.406 118.426 248.056 125.854 252.044 133.639C255.844 141.339 258.644 150.739 260.444 158.039C260.725 159.199 261.307 160.265 262.132 161.128C262.956 161.992 263.994 162.623 265.139 162.957C266.285 163.292 267.499 163.319 268.659 163.035C269.818 162.75 270.883 162.166 271.744 161.339V161.339Z" fill="white"/>
<path d="M65.8438 183.239C64.7378 183.222 63.6347 183.122 62.5438 182.939C62.2818 182.891 62.0328 182.789 61.8125 182.639C61.5922 182.49 61.4055 182.296 61.2644 182.07C61.1232 181.844 61.0307 181.591 60.9927 181.328C60.9548 181.064 60.9721 180.796 61.0438 180.539C61.086 180.284 61.1807 180.041 61.3219 179.825C61.4631 179.609 61.6477 179.424 61.864 179.283C62.0802 179.142 62.3235 179.048 62.5782 179.006C62.8329 178.964 63.0936 178.975 63.3438 179.039C63.5438 179.039 70.2438 180.339 72.0438 176.239C75.3438 168.539 81.0438 164.739 87.8438 165.439C92.6438 165.939 94.8438 169.039 96.7438 171.839C98.0438 173.739 99.2438 175.339 101.044 176.139C105.644 178.139 108.244 177.439 108.244 177.439C108.747 177.311 109.28 177.373 109.741 177.613C110.202 177.853 110.559 178.254 110.744 178.739C110.894 179.243 110.842 179.786 110.6 180.252C110.357 180.719 109.943 181.073 109.444 181.239C109.044 181.339 105.444 182.339 99.4438 179.839C96.5438 178.539 94.9438 176.239 93.4438 174.139C91.7438 171.639 90.3438 169.739 87.3438 169.439C82.2438 168.939 78.2438 171.739 75.5438 177.839C73.7438 182.339 69.0438 183.239 65.8438 183.239Z" fill="#B2C2F9"/>
<path d="M253.844 194.739C252.625 194.757 251.411 194.588 250.244 194.239C247.944 193.639 246.644 191.839 245.544 190.339C243.944 188.239 242.544 186.339 238.744 186.339C232.544 186.339 231.344 192.439 231.244 192.639C231.146 193.154 230.851 193.61 230.421 193.909C229.991 194.208 229.46 194.327 228.944 194.239C228.686 194.197 228.439 194.103 228.218 193.964C227.997 193.825 227.806 193.642 227.657 193.428C227.508 193.213 227.403 192.971 227.349 192.715C227.295 192.46 227.293 192.196 227.344 191.939C227.944 188.639 231.144 182.339 238.744 182.339C244.544 182.339 247.044 185.539 248.744 187.939C249.744 189.339 250.444 190.139 251.344 190.439C253.468 190.96 255.701 190.821 257.744 190.039C257.978 189.924 258.235 189.859 258.496 189.847C258.757 189.836 259.018 189.878 259.262 189.972C259.506 190.066 259.728 190.209 259.914 190.393C260.1 190.576 260.246 190.796 260.344 191.039C260.459 191.274 260.524 191.53 260.536 191.791C260.547 192.052 260.505 192.313 260.411 192.557C260.317 192.801 260.174 193.023 259.99 193.21C259.807 193.396 259.586 193.542 259.344 193.639C257.611 194.398 255.735 194.773 253.844 194.739V194.739Z" fill="#B2C2F9"/>
<path d="M192.544 291.039C190.344 291.039 188.344 290.939 187.944 290.939C187.42 290.894 186.933 290.653 186.58 290.263C186.228 289.873 186.036 289.365 186.044 288.839C186.049 288.574 186.109 288.313 186.219 288.072C186.329 287.83 186.487 287.614 186.684 287.436C186.881 287.258 187.112 287.123 187.363 287.037C187.614 286.952 187.879 286.918 188.144 286.939C190.844 287.139 195.944 287.239 197.744 286.639C198.044 286.539 198.444 285.839 198.844 285.039C199.513 283.443 200.536 282.02 201.835 280.877C203.134 279.734 204.676 278.9 206.344 278.439C210.644 277.139 213.544 278.739 216.244 280.139C217.477 280.848 218.785 281.419 220.144 281.839C222.555 282.27 225.021 282.304 227.444 281.939C227.959 281.858 228.486 281.979 228.915 282.277C229.343 282.576 229.64 283.027 229.744 283.539C229.825 284.055 229.703 284.582 229.405 285.01C229.107 285.439 228.655 285.736 228.144 285.839C227.944 285.839 223.044 286.639 219.244 285.639C217.582 285.131 215.975 284.461 214.444 283.639C212.044 282.339 210.244 281.439 207.544 282.239C204.244 283.239 203.344 285.039 202.444 286.839C201.744 288.239 200.944 289.839 198.944 290.439C196.847 290.925 194.694 291.127 192.544 291.039Z" fill="#B2C2F9"/>
<path d="M271.544 193.839L269.344 211.539L251.644 238.539L252.344 260.039L251.644 270.439L267.244 244.039L266.844 224.739L274.244 213.439L271.544 193.839Z" fill="#809DF9"/>
<path d="M245.344 224.839C248.823 224.839 251.644 222.018 251.644 218.539C251.644 215.06 248.823 212.239 245.344 212.239C241.865 212.239 239.044 215.06 239.044 218.539C239.044 222.018 241.865 224.839 245.344 224.839Z" fill="white"/>
<path d="M167.844 300.839C171.323 300.839 174.144 298.018 174.144 294.539C174.144 291.06 171.323 288.239 167.844 288.239C164.365 288.239 161.544 291.06 161.544 294.539C161.544 298.018 164.365 300.839 167.844 300.839Z" fill="white"/>
<path d="M106.244 285.039C111.325 285.039 115.444 280.92 115.444 275.839C115.444 270.758 111.325 266.639 106.244 266.639C101.163 266.639 97.0439 270.758 97.0439 275.839C97.0439 280.92 101.163 285.039 106.244 285.039Z" fill="white"/>
<path d="M56.1439 165.739C60.0652 165.739 63.2439 162.56 63.2439 158.639C63.2439 154.718 60.0652 151.539 56.1439 151.539C52.2227 151.539 49.0439 154.718 49.0439 158.639C49.0439 162.56 52.2227 165.739 56.1439 165.739Z" fill="white"/>
<path d="M108.044 242.04C102.22 246.797 96.1449 251.237 89.8439 255.34C87.6531 256.768 85.3827 258.07 83.0439 259.24C80.1463 260.709 77.1369 261.946 74.0439 262.94C69.6439 264.14 66.0439 263.84 62.8439 260.84C61.5439 259.64 60.2439 257.34 59.0439 254.24C55.2439 244.84 51.8439 228.74 51.5439 217.04C51.1439 204.84 55.7439 201.94 63.4439 202.24C65.8287 202.373 68.2012 202.674 70.5439 203.14C73.9439 203.74 77.2439 204.54 80.3439 205.34C87.6966 207.378 94.8572 210.055 101.744 213.34C101.344 219.84 103.344 228.14 105.244 234.14C106.644 238.74 108.044 242.04 108.044 242.04Z" fill="#FEA372"/>
<path d="M108.044 242.039C102.22 246.796 96.1448 251.236 89.8438 255.339C87.5377 252.427 85.4962 249.315 83.7438 246.039C81.2242 241.089 79.5671 235.746 78.8438 230.239C77.2438 217.839 78.9438 209.639 80.3438 205.339C87.6965 207.377 94.8571 210.054 101.744 213.339C101.344 219.839 103.344 228.139 105.244 234.139C106.644 238.739 108.044 242.039 108.044 242.039Z" fill="#F52300"/>
<path d="M74.0439 262.84C69.6439 264.04 66.0439 263.74 62.8439 260.74C61.5439 259.54 60.2439 257.24 59.0439 254.14C55.2439 244.74 51.8439 228.64 51.5439 216.94C51.1439 204.74 55.7439 201.84 63.4439 202.14C61.3398 213.934 61.5436 226.024 64.0439 237.74C65.1121 242.721 66.6869 247.58 68.7439 252.24C70.2476 255.899 72.0191 259.442 74.0439 262.84V262.84Z" fill="#F52300"/>
<path d="M108.044 242.039C102.22 246.796 96.1449 251.236 89.8439 255.339C87.6531 256.767 85.3828 258.069 83.0439 259.239C80.1464 260.708 77.137 261.945 74.0439 262.939C69.6439 264.139 66.0439 263.839 62.8439 260.839C61.5439 259.639 60.2439 257.339 59.0439 254.239C63.0055 253.776 66.9199 252.973 70.7439 251.839C78.1439 249.539 96.3439 239.339 105.244 234.139C106.644 238.739 108.044 242.039 108.044 242.039Z" fill="#FC7F51"/>
<path d="M108.044 242.039C102.22 246.796 96.1449 251.236 89.8439 255.339C87.5378 252.427 85.4964 249.315 83.7439 246.039C91.3439 242.139 99.9439 237.239 105.244 234.139C106.644 238.739 108.044 242.039 108.044 242.039Z" fill="#EA1C07"/>
<path d="M74.0439 262.839C69.6439 264.039 66.0439 263.739 62.8439 260.739C61.5439 259.539 60.2439 257.239 59.0439 254.139C62.2825 253.767 65.4906 253.166 68.6439 252.339C70.2398 255.94 72.0429 259.446 74.0439 262.839V262.839Z" fill="#EA1C07"/>
<path d="M222.443 230.439C222.037 233.305 221.229 236.099 220.043 238.739C213.843 252.439 198.043 259.539 179.543 262.139C166.215 263.839 152.714 263.637 139.443 261.539C136.643 261.139 133.943 260.639 131.243 260.139C127.596 259.398 123.991 258.463 120.443 257.339C105.643 252.639 99.1428 246.139 96.4428 239.839C94.3428 235.239 94.2428 230.539 94.2428 226.839C94.1428 216.939 102.843 207.239 117.543 199.639C125.278 195.709 133.429 192.657 141.843 190.539C147.443 189.039 153.343 187.739 159.343 186.739C165.582 185.667 171.925 185.331 178.243 185.739C204.943 187.339 226.443 203.539 222.443 230.439Z" fill="#FEA372"/>
<path d="M179.544 262.039C166.216 263.739 152.715 263.537 139.444 261.439C137.685 256.973 136.346 252.353 135.444 247.639C134.101 240.351 133.464 232.95 133.544 225.539C133.544 210.639 137.244 199.039 141.744 190.439C147.344 188.939 153.244 187.639 159.244 186.639C165.483 185.567 171.827 185.231 178.144 185.639C172.044 191.239 162.844 203.439 163.944 224.939C164.444 233.445 166.799 241.739 170.844 249.239C173.25 253.821 176.169 258.115 179.544 262.039V262.039Z" fill="#F52300"/>
<path d="M120.343 257.239C105.543 252.539 99.0429 246.039 96.3429 239.739C94.2429 235.139 94.1429 230.439 94.1429 226.739C94.0429 216.839 102.743 207.139 117.443 199.539C114.543 206.239 111.743 216.739 112.743 230.839C113.027 235.456 113.866 240.023 115.243 244.439C116.445 248.888 118.157 253.183 120.343 257.239V257.239Z" fill="#F52300"/>
<path d="M220.044 238.639C213.844 252.339 198.044 259.439 179.544 262.039C166.216 263.739 152.715 263.537 139.444 261.439C136.644 261.039 133.944 260.539 131.244 260.039C127.597 259.298 123.992 258.363 120.444 257.239C105.644 252.539 99.1438 246.039 96.4438 239.739C107.444 243.139 133.844 249.839 169.044 249.139C198.244 248.539 213.044 242.939 220.044 238.639Z" fill="#FC7F51"/>
<path d="M179.544 262.039C166.216 263.739 152.715 263.537 139.444 261.439C137.685 256.973 136.346 252.353 135.444 247.639C146.564 248.893 157.756 249.394 168.944 249.139C169.546 249.156 170.148 249.122 170.744 249.039C173.17 253.695 176.123 258.057 179.544 262.039V262.039Z" fill="#EA1C07"/>
<path d="M120.344 257.239C105.544 252.539 99.044 246.039 96.344 239.739C102.522 241.642 108.798 243.211 115.144 244.439C116.422 248.877 118.165 253.167 120.344 257.239V257.239Z" fill="#EA1C07"/>
<path d="M204.844 220.239C208.434 220.239 211.344 217.329 211.344 213.739C211.344 210.149 208.434 207.239 204.844 207.239C201.254 207.239 198.344 210.149 198.344 213.739C198.344 217.329 201.254 220.239 204.844 220.239Z" fill="#1C3177"/>
<path d="M216.744 238.939C216.453 240.419 215.836 241.816 214.936 243.027C214.036 244.239 212.877 245.233 211.544 245.939C205.844 249.139 201.244 249.539 199.444 248.239C199.153 247.998 198.885 247.73 198.644 247.439C197.244 245.439 196.744 241.139 202.044 236.739C208.244 231.539 214.944 233.139 216.144 234.739C216.869 236.012 217.084 237.514 216.744 238.939V238.939Z" fill="#1C3177"/>
<path d="M216.744 238.94C216.453 240.42 215.836 241.817 214.936 243.028C214.036 244.24 212.877 245.234 211.544 245.94C205.844 249.14 201.244 249.54 199.444 248.24C199.153 247.999 198.885 247.731 198.644 247.44C199.044 245.54 200.244 243.44 202.844 241.24C208.744 236.14 215.144 237.44 216.744 238.94Z" fill="#F52300"/>
<path d="M172.644 254.239C172.644 254.239 172.344 272.139 157.344 276.839C140.744 282.039 133.244 270.039 135.644 256.439C135.644 256.239 135.744 256.039 135.744 255.839C138.544 241.939 151.444 236.839 151.444 236.839C155.844 241.139 168.844 251.239 171.944 253.639C172.159 253.86 172.393 254.06 172.644 254.239V254.239Z" fill="#FC7F51"/>
<path d="M171.944 253.639C170.444 259.239 166.744 266.939 157.644 269.839C143.944 274.139 136.444 266.739 135.644 256.339C135.644 256.139 135.744 255.939 135.744 255.739C138.544 241.839 151.444 236.739 151.444 236.739C155.844 241.139 168.844 251.239 171.944 253.639Z" fill="#FEA372"/>
<path d="M141.144 190.639C141.144 190.639 164.944 169.639 177.144 172.739C189.344 175.839 184.244 185.939 184.244 185.939C184.244 185.939 152.244 187.839 141.144 190.639Z" fill="#FEA372"/>
<path d="M255.744 252.039C267.352 261.865 276.409 274.353 282.144 288.439C291.544 311.739 290.144 339.739 290.144 339.739C290.144 339.739 301.644 347.839 314.844 344.839C328.044 341.839 330.844 328.739 330.844 328.739C330.844 328.739 325.244 294.839 303.344 265.139C292.424 250.699 278.721 238.593 263.044 229.539C263.044 229.539 253.944 235.539 255.744 252.039Z" fill="#809DF9"/>
<path d="M310.044 246.739L297.244 236.039C297.053 235.886 296.895 235.696 296.781 235.48C296.666 235.264 296.597 235.026 296.579 234.782C296.56 234.539 296.592 234.293 296.672 234.062C296.752 233.831 296.878 233.619 297.044 233.439C297.303 233.121 297.667 232.906 298.07 232.833C298.473 232.759 298.89 232.832 299.244 233.039L314.044 240.739C314.475 240.953 314.859 241.25 315.175 241.614C315.491 241.978 315.731 242.4 315.882 242.857C316.034 243.314 316.093 243.796 316.057 244.276C316.021 244.756 315.89 245.224 315.673 245.654C315.455 246.083 315.154 246.465 314.788 246.777C314.421 247.089 313.997 247.326 313.539 247.473C313.08 247.621 312.597 247.676 312.118 247.636C311.638 247.595 311.171 247.461 310.744 247.239C310.488 247.106 310.252 246.938 310.044 246.739Z" fill="#809DF9"/>
<path d="M327.944 221.539L299.244 221.639C299.007 221.64 298.773 221.594 298.554 221.504C298.335 221.414 298.136 221.281 297.969 221.114C297.802 220.947 297.669 220.748 297.579 220.529C297.489 220.31 297.443 220.076 297.444 219.839C297.448 219.396 297.612 218.97 297.906 218.639C298.2 218.308 298.605 218.095 299.044 218.039L327.444 214.339C327.917 214.271 328.399 214.297 328.862 214.416C329.325 214.536 329.759 214.745 330.141 215.034C330.522 215.322 330.842 215.683 331.083 216.096C331.324 216.509 331.481 216.965 331.544 217.439C331.612 217.912 331.586 218.394 331.467 218.857C331.347 219.32 331.137 219.754 330.849 220.136C330.561 220.517 330.2 220.837 329.787 221.078C329.374 221.319 328.918 221.476 328.444 221.539H327.944Z" fill="#809DF9"/>
<path d="M317.844 195.439L299.544 204.239C299.145 204.417 298.693 204.434 298.282 204.284C297.871 204.135 297.535 203.832 297.344 203.439C297.174 203.085 297.131 202.683 297.222 202.3C297.313 201.918 297.533 201.579 297.844 201.339L314.144 189.139C314.525 188.85 314.959 188.639 315.421 188.518C315.884 188.397 316.365 188.368 316.839 188.433C317.313 188.498 317.769 188.655 318.181 188.897C318.594 189.138 318.955 189.458 319.244 189.839C319.533 190.22 319.744 190.654 319.865 191.116C319.986 191.579 320.015 192.06 319.95 192.534C319.885 193.008 319.728 193.464 319.486 193.876C319.245 194.289 318.925 194.65 318.544 194.939C318.363 195.169 318.12 195.343 317.844 195.439Z" fill="#809DF9"/>
<path d="M306.244 131.539C313.203 131.539 318.844 125.898 318.844 118.939C318.844 111.98 313.203 106.339 306.244 106.339C299.285 106.339 293.644 111.98 293.644 118.939C293.644 125.898 299.285 131.539 306.244 131.539Z" fill="#F03838"/>
<path d="M318.144 99.7391L311.044 96.9391C309.612 96.3808 308.43 95.3253 307.714 93.9662C306.998 92.6071 306.795 91.0354 307.144 89.5391L326.844 4.93909C327.049 4.06965 327.434 3.25272 327.973 2.54064C328.513 1.82856 329.195 1.23703 329.977 0.803971C330.758 0.370907 331.621 0.105857 332.511 0.0258033C333.401 -0.0542504 334.298 0.0524583 335.144 0.339092L362.544 9.43909C363.421 9.72918 364.226 10.2055 364.902 10.8355C365.578 11.4655 366.11 12.2342 366.462 13.089C366.813 13.9438 366.975 14.8644 366.938 15.7879C366.9 16.7113 366.663 17.6157 366.244 18.4391L326.244 96.6391C325.526 98.0749 324.296 99.1895 322.796 99.7633C321.297 100.337 319.637 100.328 318.144 99.7391V99.7391Z" fill="#F03838"/>
</g>
<defs>
<clipPath id="clip0_119_2">
<rect width="503.005" height="436.966" fill="white"/>
</clipPath>
</defs>
</svg>
