<svg width="491" height="342" viewBox="0 0 491 342" fill="none" xmlns="http://www.w3.org/2000/svg">
<g clip-path="url(#clip0_114_119)">
<path d="M359.21 244.703C379.41 253.603 346.51 254.703 302.31 258.203C258.11 261.803 233.11 258.603 200.21 258.103C167.41 257.603 118.81 259.903 115.51 250.103C112.11 240.303 139.61 233.703 142.11 228.203C144.51 222.803 83.7102 225.803 85.2102 219.503C85.7102 217.403 87.6102 215.503 90.7102 213.803C117.51 198.903 233.61 197.503 290.11 197.103C353.11 196.603 418.41 195.703 444.41 210.603C447.91 212.603 449.41 214.303 449.31 215.803C448.91 225.603 382.91 226.103 363.21 229.203C340.21 232.703 339.01 235.803 359.21 244.703Z" fill="#C7D4FF"/>
<path d="M329.61 228.304C344.51 234.104 320.21 234.704 287.61 237.004C254.91 239.204 236.41 237.204 212.21 236.804C187.91 236.404 152.11 237.904 149.61 231.504C147.11 225.104 167.41 220.904 169.21 217.404C171.01 213.904 126.01 215.804 127.11 211.604C127.51 210.204 128.91 209.004 131.11 207.904C150.91 198.304 236.71 197.604 278.41 197.304C324.91 197.004 383.51 193.904 392.41 203.404C396.71 208.004 347.01 216.304 332.41 218.204C315.51 220.504 314.61 222.504 329.61 228.304Z" fill="#99ADF9"/>
<path d="M359.21 244.704C379.41 253.604 346.51 254.704 302.31 258.204C258.11 261.804 233.11 258.604 200.21 258.104C167.41 257.604 118.81 259.904 115.51 250.104C112.11 240.304 139.61 233.704 142.11 228.204C144.51 222.804 83.7102 225.804 85.2102 219.504C85.7102 217.404 87.6102 215.504 90.7102 213.804C91.5102 215.304 94.7102 216.804 103.61 217.504C123.91 219.004 152.61 220.104 154.31 224.404C156.01 228.704 126.11 240.504 129.91 246.504C133.71 252.404 214.21 250.004 262.31 251.704C310.41 253.404 353.21 250.304 347.71 247.004C342.21 243.704 328.81 236.404 338.91 229.804C349.01 223.204 404.71 222.104 428.21 219.804C435.336 219.245 442.378 217.904 449.21 215.804C448.81 225.604 382.81 226.104 363.11 229.204C340.21 232.704 339.01 235.804 359.21 244.704Z" fill="#99ADF9"/>
<path d="M413.61 208.604C407.51 209.104 408.01 215.104 418.41 213.704C428.71 212.404 425.51 207.604 413.61 208.604Z" fill="#99ADF9"/>
<path d="M377.51 213.104C371.41 213.604 371.91 219.604 382.31 218.204C392.71 217.004 389.41 212.104 377.51 213.104Z" fill="#99ADF9"/>
<path d="M114.81 210.604C108.71 211.104 109.21 217.104 119.61 215.704C130.01 214.504 126.71 209.704 114.81 210.604Z" fill="#99ADF9"/>
<path d="M147.41 231.304C141.31 231.804 141.81 237.804 152.21 236.404C162.51 235.104 159.31 230.304 147.41 231.304Z" fill="#99ADF9"/>
<path d="M469.91 239.704C463.01 244.404 452.41 245.404 436.71 245.604C425.41 245.804 419.01 242.204 419.81 238.704C420.41 236.104 425.11 233.604 434.71 232.604C452.61 230.804 469.01 233.004 471.21 236.504C471.91 237.504 471.51 238.604 469.91 239.704Z" fill="#C7D4FF"/>
<path d="M131.31 195.904C123.01 200.704 110.01 202.004 90.6102 202.604C76.7102 203.004 68.7102 199.604 69.7102 196.104C70.4102 193.504 76.1102 190.804 87.9102 189.704C109.81 187.504 130.11 189.304 133.01 192.804C133.81 193.704 133.31 194.704 131.31 195.904Z" fill="#C7D4FF"/>
<path d="M449.41 47.8037C449.41 47.8037 463.01 46.4037 478.11 66.0037C490.11 81.5037 487.41 100.004 487.41 100.004C487.41 100.004 496.61 81.0037 484.21 63.3037C470.91 44.4037 449.41 47.8037 449.41 47.8037Z" fill="#C7D4FF"/>
<path d="M442.21 108.904C442.21 108.904 445.81 117.304 442.41 129.304C439.01 141.304 432.61 146.304 432.61 146.304C436.247 145.076 439.49 142.899 442.004 139.998C444.518 137.098 446.212 133.578 446.91 129.804C449.81 116.304 442.21 108.904 442.21 108.904Z" fill="#C7D4FF"/>
<path d="M153.51 118.104C153.51 118.104 152.11 110.304 163.11 95.6036C174.11 80.9036 190.11 75.3036 190.11 75.3036L170.71 35.2036C170.71 35.2036 178.01 63.3036 167.31 71.7036C156.51 80.1036 138.71 69.3036 138.71 69.3036C138.71 69.3036 149.31 87.9036 145.91 96.1036C142.61 104.304 124.61 105.704 124.61 105.704L153.51 118.104Z" fill="#99ADF9"/>
<path d="M215.41 276.704L203.41 291.104C203.111 291.463 202.744 291.759 202.329 291.974C201.914 292.189 201.46 292.319 200.994 292.356C200.529 292.393 200.06 292.337 199.616 292.191C199.172 292.044 198.762 291.811 198.41 291.504C198.051 291.205 197.755 290.837 197.54 290.422C197.325 290.007 197.195 289.554 197.158 289.088C197.121 288.622 197.177 288.154 197.323 287.71C197.47 287.266 197.703 286.856 198.01 286.504L198.41 286.104L212.61 273.804C213.013 273.47 213.529 273.304 214.05 273.341C214.572 273.379 215.059 273.616 215.41 274.004C215.726 274.383 215.899 274.86 215.899 275.354C215.899 275.847 215.726 276.325 215.41 276.704Z" fill="#99ADF9"/>
<path d="M232.11 278.404L229.71 307.604C229.634 308.382 229.257 309.1 228.659 309.604C228.061 310.109 227.29 310.36 226.51 310.304C225.732 310.228 225.014 309.85 224.51 309.253C224.005 308.655 223.754 307.884 223.81 307.104V307.004L227.71 277.904C227.811 277.33 228.124 276.816 228.588 276.464C229.051 276.112 229.631 275.947 230.21 276.004C230.769 276.096 231.273 276.392 231.624 276.836C231.976 277.28 232.149 277.839 232.11 278.404V278.404Z" fill="#99ADF9"/>
<path d="M249.21 277.304L257.11 298.004C257.444 298.877 257.42 299.846 257.043 300.702C256.666 301.557 255.967 302.229 255.098 302.572C254.228 302.914 253.258 302.9 252.399 302.531C251.54 302.163 250.861 301.47 250.51 300.604C250.419 300.454 250.384 300.277 250.41 300.104L245.41 278.504C245.3 277.987 245.395 277.448 245.675 277C245.955 276.552 246.398 276.231 246.91 276.104C247.374 275.991 247.863 276.051 248.286 276.271C248.709 276.492 249.037 276.859 249.21 277.304V277.304Z" fill="#99ADF9"/>
<path d="M265.31 274.004L277.21 282.004C277.993 282.521 278.538 283.328 278.725 284.247C278.913 285.165 278.727 286.121 278.21 286.904C277.693 287.686 276.886 288.231 275.967 288.418C275.048 288.606 274.093 288.421 273.31 287.904C273.125 287.796 272.956 287.661 272.81 287.504L262.51 277.504C262.297 277.306 262.127 277.066 262.011 276.799C261.895 276.532 261.835 276.245 261.835 275.954C261.835 275.663 261.895 275.375 262.011 275.108C262.127 274.842 262.297 274.602 262.51 274.404C262.836 273.989 263.308 273.716 263.83 273.642C264.352 273.567 264.882 273.697 265.31 274.004V274.004Z" fill="#99ADF9"/>
<path d="M474.81 124.303C468.91 142.703 443.11 152.103 443.11 152.103L443.91 151.303C447.61 147.103 462.91 127.703 449.81 102.503C435.01 73.9027 386.11 83.7027 386.11 83.7027L385.01 76.6027L383.81 69.2027C383.81 69.2027 410.41 45.5027 446.31 59.0027C480.51 71.9027 480.71 106.003 474.81 124.303Z" fill="#FEC272"/>
<path d="M455.81 140.304C453.01 144.704 448.61 148.404 444.01 151.304C447.71 147.104 463.01 127.704 449.91 102.504C435.11 73.9037 386.21 83.7037 386.21 83.7037L385.11 76.6037C395.71 75.1037 423.71 72.7037 442.71 83.7037C465.31 96.8037 465.21 125.604 455.81 140.304Z" fill="#FCAA51"/>
<path d="M394.71 106.202C394.21 122.102 391.61 135.902 388.01 143.902C380.31 161.302 374.91 171.202 363.61 180.002C358.751 183.703 353.563 186.95 348.11 189.702C325.01 201.802 262.11 202.602 262.11 202.602C259.61 202.802 257.11 203.002 254.61 203.102C231.71 204.302 210.11 201.802 196.81 194.602C190.61 191.302 186.21 186.902 184.31 181.502C178.01 163.102 175.71 135.002 217.51 63.8017C244.41 18.0017 278.01 -0.0982645 309.81 0.101735C326.71 0.201735 343.01 5.50173 357.61 14.5017C358.21 14.9017 358.91 15.3017 359.51 15.7017C387.71 33.9017 395.71 74.3017 394.71 106.202Z" fill="#FEC272"/>
<path d="M309.81 0.00163781C291.01 7.60164 262.11 26.5016 235.91 73.5016C202.61 133.202 197.41 177.302 196.71 194.502C190.51 191.202 186.11 186.802 184.21 181.402C177.91 163.002 175.61 134.902 217.41 63.7016C244.51 17.9016 278.11 -0.198362 309.81 0.00163781Z" fill="#FFCB8D"/>
<path d="M394.71 106.203C394.21 122.103 391.61 135.903 388.01 143.903C377.41 167.703 371.21 177.503 348.11 189.603C325.01 201.703 262.11 202.503 262.11 202.503C259.61 202.703 257.11 202.903 254.61 203.003C253.91 193.503 256.31 180.703 261.91 164.003C278.91 113.003 305.91 94.2025 336.41 88.3025C362.71 83.3025 383.21 96.1025 394.71 106.203Z" fill="#FCAA51"/>
<path d="M394.71 106.204C394.21 122.104 391.61 135.904 388.01 143.904C380.31 161.304 374.91 171.204 363.61 180.004C372.622 154.86 377.453 128.41 377.91 101.704C378.61 59.1037 366.81 30.2037 357.61 14.5037C358.21 14.9037 358.91 15.3037 359.51 15.7037C387.71 33.9037 395.71 74.3037 394.71 106.204Z" fill="#FCAA51"/>
<path d="M395.21 113.603C393.61 132.303 385.81 162.303 378.51 182.203C375.61 190.103 372.81 196.503 370.41 199.803C366.41 205.503 358.61 208.003 350.81 208.503C342.61 209.103 334.31 207.703 330.51 205.603C323.51 201.903 306.11 170.003 310.01 135.203C310.21 133.103 310.51 131.003 310.91 128.903C317.91 91.8027 335.31 81.4027 361.71 84.3027C367.083 84.8143 372.382 85.9211 377.51 87.6027C388.11 91.4027 396.61 98.6027 395.21 113.603Z" fill="#FEC272"/>
<path d="M378.51 182.203C375.61 190.103 372.81 196.503 370.41 199.803C362.21 211.503 338.01 209.603 330.51 205.703C323.51 202.003 306.11 170.103 310.01 135.303C312.21 151.403 320.21 174.003 346.91 179.803C359.81 182.703 370.21 183.103 378.51 182.203Z" fill="#FCAA51"/>
<path d="M395.21 113.603C393.61 132.303 385.81 162.303 378.51 182.203C375.61 190.103 372.81 196.503 370.41 199.803C366.41 205.503 358.61 208.003 350.81 208.503C358.71 194.303 376.91 155.603 377.81 101.603C377.91 96.8025 377.81 92.1025 377.61 87.6025C388.11 91.4025 396.61 98.6025 395.21 113.603Z" fill="#FCAA51"/>
<path d="M369.71 213.003C368.391 213.27 367.054 213.437 365.71 213.503C364.41 213.603 363.01 213.803 361.41 213.903C358.41 214.103 355.01 214.303 351.51 214.403C350.11 214.403 348.61 214.503 347.21 214.503C344.21 214.603 341.31 214.503 338.61 214.503H337.51C336.41 214.503 335.31 214.403 334.41 214.403C334.01 214.403 333.61 214.303 333.31 214.303C332.062 214.209 330.824 214.008 329.61 213.703C323.51 211.803 319.81 205.803 324.51 198.503C329.21 191.203 339.41 185.403 352.91 185.403C366.41 185.403 377.71 193.303 378.31 201.803C378.91 210.203 376.01 211.803 369.71 213.003Z" fill="#FEC272"/>
<path d="M351.61 201.103V214.403C350.21 214.403 348.71 214.503 347.31 214.503V201.103C347.31 200.536 347.528 199.991 347.919 199.581C348.31 199.171 348.844 198.928 349.41 198.903C349.987 198.925 350.534 199.163 350.941 199.571C351.349 199.979 351.588 200.526 351.61 201.103Z" fill="#FFA245"/>
<path d="M338.81 201.303V214.503H337.71C336.61 214.503 335.51 214.403 334.61 214.403V201.403C334.588 200.81 334.793 200.232 335.184 199.786C335.574 199.34 336.12 199.059 336.71 199.003C337.001 199.011 337.287 199.077 337.551 199.198C337.815 199.319 338.053 199.492 338.249 199.707C338.445 199.921 338.595 200.173 338.692 200.448C338.788 200.722 338.829 201.013 338.81 201.303V201.303Z" fill="#FFA245"/>
<path d="M365.81 201.103V213.503C364.51 213.603 363.11 213.803 361.51 213.903V201.103C361.51 200.536 361.728 199.991 362.119 199.581C362.51 199.171 363.044 198.928 363.61 198.903C364.187 198.925 364.733 199.163 365.141 199.571C365.549 199.979 365.788 200.526 365.81 201.103Z" fill="#FFA245"/>
<path d="M201.51 134.904C193.31 152.104 199.21 193.904 193.31 206.804C187.41 219.704 171.41 226.304 155.01 226.004C153.255 225.974 151.51 225.739 149.81 225.304C136.01 221.904 126.21 206.604 133.91 188.504C142.51 168.204 162.91 158.004 171.41 127.904C179.11 100.904 189.91 96.1037 200.91 94.9037C204.61 94.5037 206.91 96.1037 208.21 99.0037C211.51 106.304 207.51 122.504 201.51 134.904Z" fill="#FF8D76"/>
<path d="M201.51 134.904C193.31 152.104 199.21 193.904 193.31 206.804C187.41 219.704 171.41 226.304 155.01 226.004C153.256 225.974 151.51 225.739 149.81 225.304C147.61 220.204 146.71 212.604 149.61 201.604C156.91 174.004 171.01 168.804 173.61 149.404C176.31 130.004 176.61 118.004 183.61 107.504C189.91 98.1037 204.91 98.7037 208.21 99.0037C211.51 106.304 207.51 122.504 201.51 134.904Z" fill="#FC7059"/>
<path d="M332.61 191.604C331.54 194.881 329.765 197.885 327.41 200.404C318.41 210.204 302.01 213.404 292.41 211.804C280.41 209.804 268.61 185.704 269.81 167.804C271.01 149.904 258.11 126.404 254.91 114.704C252.51 106.004 252.91 99.4036 255.51 95.4036C256.392 94.0362 257.593 92.9037 259.01 92.1036C262.31 90.4036 274.51 85.1036 287.21 104.104C299.81 123.204 298.91 133.404 313.01 147.504C327.11 161.704 337.91 174.904 332.61 191.604Z" fill="#FF8D76"/>
<path d="M327.51 200.402C318.51 210.202 302.11 213.402 292.51 211.802C280.51 209.802 268.71 185.702 269.91 167.802C271.11 149.902 258.21 126.402 255.01 114.702C252.61 106.002 253.01 99.4017 255.61 95.4017C263.21 94.3017 275.21 95.5017 280.81 111.202C289.41 135.102 288.21 147.402 301.51 159.102C314.81 170.802 325.81 183.502 327.51 200.202V200.402Z" fill="#FC7059"/>
<path d="M310.81 208.1C309.51 219.1 303.71 226.5 290.41 231.2C270.51 238.2 252.01 228.9 244.71 227.7C237.21 226.4 225.91 233.6 214.51 237.6C203.11 241.7 181.71 243.2 170.31 231.9C164.142 225.584 160.39 217.301 159.71 208.5C158.963 200.319 161.045 192.129 165.61 185.3C175.81 170.1 181.21 155.2 182.81 125.9C184.41 96.5996 207.21 84.7996 229.11 82.8996C236.01 82.2996 255.21 81.2996 269.81 94.1996C284.51 107.1 283.31 133.5 288.31 146.4C293.31 159.3 306.81 167.2 310.01 189.2C311.11 196.5 311.51 202.7 310.81 208.1Z" fill="#FEC272"/>
<path d="M253.709 190.904C250.809 198.804 243.709 204.504 238.909 204.504C234.109 204.504 224.809 199.904 220.309 195.704C215.509 191.204 215.209 186.904 216.309 184.004C216.334 183.853 216.404 183.714 216.509 183.604C217.809 180.804 225.609 178.304 235.409 177.004C242.909 176.004 251.409 175.804 253.409 177.104C253.999 177.557 254.477 178.138 254.809 178.804C255.809 181.104 255.909 185.104 253.709 190.904Z" fill="#FCAA51"/>
<path d="M310.81 208.104C309.51 219.104 303.71 226.504 290.41 231.204C270.51 238.204 252.01 228.904 244.71 227.704C237.21 226.404 225.91 233.604 214.51 237.604C203.11 241.704 181.71 243.204 170.31 231.904C164.142 225.588 160.39 217.305 159.71 208.504C164.41 216.204 174.21 229.304 187.11 231.504C205.51 234.604 216.41 218.204 241.91 218.204C274.71 218.204 277.11 230.704 297.61 220.004C302.862 217.098 307.378 213.027 310.81 208.104V208.104Z" fill="#FCAA51"/>
<path d="M253.11 219.504C252.93 221.935 252.529 224.345 251.91 226.704C250.01 233.704 242.21 238.004 235.81 233.704C231.71 231.004 229.71 224.804 228.81 220.604C228.31 218.104 228.11 216.404 228.11 216.404L240.31 203.404L253.31 212.404C253.21 212.404 253.41 215.504 253.11 219.504Z" fill="#FC7059"/>
<path d="M253.11 219.504C246.81 220.104 241.01 216.004 241.01 216.004C238.929 217.889 236.476 219.32 233.81 220.204C232.207 220.764 230.493 220.935 228.81 220.704C228.31 218.204 228.11 216.504 228.11 216.504L240.31 203.504L253.31 212.504C253.21 212.404 253.41 215.504 253.11 219.504Z" fill="#F45145"/>
<path d="M201.71 207.604C198.81 210.904 205.71 218.404 216.91 219.904C228.21 221.404 238.91 215.404 240.11 210.704C241.31 206.004 240.21 198.504 240.21 198.504H236.41C236.41 198.504 237.61 209.204 227.91 213.504C212.91 220.104 203.71 205.204 201.71 207.604Z" fill="#1C3177"/>
<path d="M242.01 196.404C242.01 196.404 242.71 206.504 252.01 210.204C261.21 213.904 265.41 211.504 268.91 209.904C272.71 208.104 272.71 204.304 275.41 205.404C276.81 206.004 276.31 211.004 271.51 214.204C265.81 218.004 260.21 218.504 252.41 216.604C244.61 214.704 240.41 211.204 239.41 206.904C238.41 202.604 237.81 197.704 237.81 197.704L242.01 196.404Z" fill="#1C3177"/>
<path d="M253.709 186.404C250.809 194.304 243.709 200.004 238.909 200.004C234.109 200.004 224.809 195.404 220.309 191.204C215.509 186.704 215.209 182.404 216.309 179.504C216.334 179.353 216.404 179.214 216.509 179.104C217.809 176.304 225.609 173.804 235.409 172.504C242.909 171.504 251.409 171.304 253.409 172.604C253.999 173.057 254.477 173.638 254.809 174.304C255.809 176.704 255.909 180.604 253.709 186.404Z" fill="#1C3177"/>
<path d="M253.709 186.404C250.809 194.304 243.709 200.004 238.909 200.004C234.109 200.004 224.809 195.404 220.309 191.204C215.509 186.704 215.209 182.404 216.309 179.504C216.604 179.511 216.894 179.587 217.154 179.726C217.414 179.865 217.639 180.063 217.809 180.304C220.209 182.904 222.309 188.504 231.009 193.404C239.809 198.304 243.809 194.704 247.709 189.604C251.609 184.504 252.309 175.704 254.209 174.504C254.409 174.404 254.509 174.304 254.709 174.304C255.809 176.704 255.909 180.604 253.709 186.404Z" fill="#0B2359"/>
<path d="M202.01 173.304C206.042 173.304 209.31 168.468 209.31 162.504C209.31 156.539 206.042 151.704 202.01 151.704C197.979 151.704 194.71 156.539 194.71 162.504C194.71 168.468 197.979 173.304 202.01 173.304Z" fill="#1C3177"/>
<path d="M267.452 168.056C271.462 167.636 274.209 162.487 273.587 156.554C272.966 150.622 269.211 146.154 265.201 146.574C261.192 146.994 258.445 152.143 259.067 158.076C259.688 164.008 263.442 168.476 267.452 168.056Z" fill="#1C3177"/>
<path d="M197.01 128.504C193.662 131.313 191.081 134.925 189.51 139.004C188.31 141.904 189.71 143.004 193.21 143.104C196.71 143.204 202.61 138.904 205.81 133.904C209.01 128.804 203.31 123.004 197.01 128.504Z" fill="#FF8D76"/>
<path d="M267.009 122.103C270.719 124.417 273.836 127.567 276.109 131.303C277.809 134.003 276.509 135.303 273.109 135.903C269.609 136.503 263.209 133.203 259.209 128.803C255.209 124.403 259.909 117.703 267.009 122.103Z" fill="#FF8D76"/>
<path d="M12.5062 341.004C7.9062 340.904 4.9062 340.704 4.4062 340.704C3.16563 340.608 2.01131 340.032 1.18935 339.098C0.367393 338.164 -0.0571662 336.946 0.00619629 335.704C0.036801 335.083 0.191524 334.476 0.461208 333.916C0.730892 333.357 1.11006 332.857 1.57626 332.447C2.04246 332.037 2.58623 331.724 3.17538 331.528C3.76452 331.331 4.38708 331.255 5.0062 331.304C5.5062 331.304 40.3062 334.904 69.0062 323.104C79.6062 318.804 85.5062 314.904 86.6062 311.804C87.4062 309.504 85.6062 306.104 82.6062 300.704C81.6062 298.904 80.5062 297.004 79.4062 294.904C78.2242 292.614 77.558 290.094 77.4543 287.52C77.3507 284.946 77.8121 282.38 78.8062 280.004C85.3062 264.004 112.806 253.404 121.106 250.604C167.206 234.804 201.906 240.904 203.306 241.204C204.526 241.454 205.603 242.166 206.311 243.19C207.019 244.215 207.304 245.474 207.106 246.704C206.874 247.933 206.166 249.022 205.137 249.733C204.107 250.445 202.839 250.721 201.606 250.504C201.306 250.404 167.706 244.604 124.106 259.604C105.106 266.104 90.7062 275.604 87.4062 283.604C86.909 284.731 86.6774 285.957 86.7294 287.189C86.7814 288.42 87.1156 289.622 87.7062 290.704C88.7062 292.604 89.7062 294.504 90.7062 296.204C94.3062 302.504 97.6062 308.504 95.4062 315.004C93.3062 321.204 86.4062 326.204 72.5062 331.904C49.0062 341.504 28.1062 341.404 12.5062 341.004Z" fill="#1C3177"/>
<path d="M193.71 253.304C195.41 257.304 199.51 259.804 206.31 261.004C216.61 262.804 223.21 260.204 223.21 260.204L223.01 256.404L221.61 234.204C215.55 233.583 209.427 234.195 203.61 236.004C195.51 238.704 192.01 243.104 192.71 249.804C192.89 251.009 193.226 252.185 193.71 253.304V253.304Z" fill="#F0F6FF"/>
<path d="M221.465 233.991C219.425 234.12 218.146 240.123 218.608 247.399C219.069 254.674 221.096 260.467 223.136 260.338C225.175 260.209 226.454 254.206 225.993 246.93C225.531 239.655 223.504 233.862 221.465 233.991Z" fill="#C2D7EF"/>
<path d="M193.71 253.304C195.41 257.304 199.51 259.804 206.31 261.004C216.61 262.804 223.21 260.204 223.21 260.204L223.01 256.404C219.01 256.204 213.91 255.904 209.01 255.404C202.01 254.504 196.81 253.804 193.71 253.304Z" fill="#C2D7EF"/>
<path d="M233.311 243.404L224.211 244.304C223.629 244.351 223.051 244.168 222.602 243.794C222.154 243.42 221.87 242.885 221.811 242.304L221.711 241.704C221.664 241.121 221.847 240.544 222.221 240.095C222.595 239.646 223.13 239.362 223.711 239.304L232.811 238.404C233.46 238.341 234.108 238.537 234.613 238.949C235.119 239.361 235.441 239.955 235.511 240.604V240.604C235.57 240.935 235.558 241.274 235.476 241.6C235.395 241.926 235.245 242.232 235.038 242.496C234.83 242.76 234.569 242.978 234.271 243.134C233.974 243.291 233.647 243.382 233.311 243.404Z" fill="#87AACC"/>
<path d="M234.211 254.604L225.111 255.504C224.529 255.551 223.951 255.368 223.502 254.994C223.054 254.62 222.769 254.085 222.711 253.504L222.611 252.904C222.564 252.321 222.747 251.744 223.121 251.295C223.495 250.846 224.03 250.562 224.611 250.504L233.711 249.604C234.36 249.541 235.008 249.737 235.513 250.149C236.019 250.561 236.341 251.155 236.411 251.804V251.804C236.47 252.135 236.458 252.474 236.376 252.8C236.295 253.126 236.145 253.432 235.938 253.696C235.73 253.96 235.469 254.178 235.171 254.334C234.874 254.491 234.547 254.582 234.211 254.604Z" fill="#87AACC"/>
<path d="M476.506 338.904C469.706 338.704 409.906 336.504 392.606 315.104C380.906 300.604 387.806 290.804 393.806 282.104C395.206 280.104 396.606 278.004 397.906 275.904C398.943 274.227 399.509 272.302 399.544 270.331C399.579 268.36 399.082 266.416 398.106 264.704C396.006 260.804 388.206 251.604 361.606 250.504C323.506 248.804 274.106 250.904 273.606 251.004C272.36 251.057 271.143 250.612 270.224 249.768C269.305 248.925 268.759 247.75 268.706 246.504C268.653 245.257 269.097 244.041 269.941 243.122C270.785 242.203 271.96 241.657 273.206 241.604C273.706 241.604 323.606 239.404 362.106 241.104C392.306 242.504 402.806 253.704 406.406 260.304C408.154 263.43 409.047 266.962 408.994 270.544C408.942 274.125 407.945 277.63 406.106 280.704C404.734 283.052 403.232 285.323 401.606 287.504C395.706 296.004 392.706 300.304 400.006 309.304C412.706 325.004 460.206 329.304 477.406 329.604C478.653 329.63 479.838 330.151 480.7 331.051C481.563 331.951 482.033 333.157 482.006 334.404C481.98 335.65 481.459 336.835 480.559 337.698C479.659 338.56 478.453 339.03 477.206 339.004C476.981 338.928 476.744 338.894 476.506 338.904V338.904Z" fill="#1C3177"/>
<path d="M279.71 249.503C278.31 253.603 274.51 256.503 267.81 258.203C257.71 260.803 250.91 258.703 250.91 258.703L250.81 254.903L250.41 232.703C256.365 231.54 262.497 231.642 268.41 233.003C276.71 235.003 280.51 239.103 280.41 245.903C280.341 247.129 280.106 248.34 279.71 249.503V249.503Z" fill="#F0F6FF"/>
<path d="M279.71 249.503C278.31 253.603 274.51 256.503 267.81 258.203C257.71 260.803 250.91 258.703 250.91 258.703L250.81 254.903C254.81 254.403 259.81 253.703 264.71 252.703C271.61 251.403 276.61 250.303 279.71 249.503Z" fill="#C2D7EF"/>
<path d="M250.944 258.89C252.987 258.852 254.535 252.913 254.4 245.624C254.266 238.335 252.501 232.457 250.458 232.494C248.414 232.532 246.867 238.471 247.001 245.76C247.136 253.049 248.901 258.927 250.944 258.89Z" fill="#C2D7EF"/>
<path d="M250.681 244.79C251.178 244.781 251.545 242.804 251.5 240.375C251.455 237.945 251.016 235.983 250.519 235.992C250.022 236.001 249.655 237.978 249.7 240.408C249.745 242.837 250.184 244.8 250.681 244.79Z" fill="#87AACC"/>
<path d="M250.682 256.192C251.179 256.182 251.546 254.205 251.501 251.776C251.456 249.346 251.017 247.384 250.52 247.393C250.023 247.402 249.657 249.379 249.701 251.809C249.746 254.239 250.185 256.201 250.682 256.192Z" fill="#87AACC"/>
<path d="M187.209 248.204C187.228 248.972 187.195 249.74 187.109 250.504C186.609 255.604 184.109 259.304 178.709 261.804C176.986 262.592 175.173 263.163 173.309 263.504C168.87 264.48 164.351 265.049 159.809 265.204C158.609 265.304 157.309 265.304 155.909 265.304H153.009C149.609 265.304 146.409 265.204 143.409 265.004C141.409 264.804 139.409 264.504 137.709 264.204C130.309 262.604 125.509 259.104 124.609 252.204C125.209 257.304 114.409 224.104 155.709 220.204C174.809 218.304 187.209 236.804 187.209 248.204Z" fill="#FCAA51"/>
<path d="M187.209 248.203C187.228 248.971 187.195 249.739 187.109 250.503C183.109 255.903 173.709 258.503 155.709 258.803C141.409 259.103 129.909 258.103 124.609 252.103C125.209 257.203 114.409 224.003 155.709 220.103C174.809 218.303 187.209 236.803 187.209 248.203Z" fill="#FEC272"/>
<path d="M143.409 265.003C141.409 264.803 139.409 264.503 137.709 264.203C137.131 259.358 136.997 254.471 137.309 249.603C138.009 242.503 140.709 242.103 141.509 243.403C142.309 244.703 141.809 252.303 142.709 259.303C142.909 261.303 143.209 263.303 143.409 265.003Z" fill="#FFA245"/>
<path d="M178.709 261.803C176.986 262.591 175.172 263.162 173.309 263.503C173.109 261.603 172.909 259.303 172.609 256.903C171.809 249.903 169.509 242.603 169.909 241.203C170.309 239.803 173.109 239.503 175.409 246.303C177.067 251.335 178.174 256.532 178.709 261.803V261.803Z" fill="#FFA245"/>
<path d="M159.809 265.203C158.609 265.303 157.309 265.303 155.909 265.303H153.009C153.009 262.603 152.909 259.003 152.709 255.703C152.409 249.203 152.209 245.003 154.209 244.603C156.209 244.203 158.309 251.403 159.209 259.003C159.509 261.603 159.709 263.603 159.809 265.203Z" fill="#FFA245"/>
<path d="M286.107 243.007C286.12 243.777 286.187 244.546 286.307 245.307C286.907 250.407 289.407 254.107 294.807 256.407C296.557 257.121 298.363 257.69 300.207 258.107C304.654 259.004 309.172 259.506 313.707 259.607C314.907 259.607 316.207 259.707 317.607 259.707H320.507C323.715 259.75 326.922 259.583 330.107 259.207C332.023 259.02 333.927 258.719 335.807 258.307C343.107 256.607 347.907 253.107 348.707 246.107C350.007 234.307 336.307 216.107 317.207 214.507C298.107 212.907 285.907 231.507 286.107 243.007Z" fill="#FCAA51"/>
<path d="M286.107 243.007C286.12 243.777 286.187 244.546 286.307 245.307C290.407 250.707 299.807 253.107 317.807 253.207C332.107 253.307 343.607 252.107 348.807 246.107C350.107 234.307 336.407 216.107 317.307 214.507C298.107 212.907 285.907 231.507 286.107 243.007Z" fill="#FEC272"/>
<path d="M330.109 259.204C332.025 259.017 333.929 258.717 335.809 258.304C336.353 253.455 336.42 248.565 336.009 243.704C335.209 236.604 332.509 236.204 331.709 237.504C331.009 238.804 331.609 246.404 330.809 253.404C330.609 255.504 330.309 257.404 330.109 259.204Z" fill="#FFA245"/>
<path d="M294.809 256.404C296.559 257.118 298.366 257.687 300.209 258.104C300.309 256.204 300.509 253.904 300.809 251.504C301.509 244.504 303.709 237.204 303.209 235.804C302.809 234.404 300.009 234.104 297.709 240.904C296.264 245.969 295.294 251.158 294.809 256.404V256.404Z" fill="#FFA245"/>
<path d="M313.709 259.504C314.909 259.504 316.209 259.604 317.609 259.604H320.509C320.509 256.904 320.509 253.304 320.609 250.004C320.809 243.504 320.909 239.304 319.009 238.904C317.009 238.504 315.009 245.804 314.209 253.404C313.909 256.004 313.809 258.004 313.709 259.504Z" fill="#FFA245"/>
</g>
<defs>
<clipPath id="clip0_114_119">
<rect width="490.694" height="341.136" fill="white"/>
</clipPath>
</defs>
</svg>
